<?xml version="1.0" encoding="UTF-8" standalone="no"?>
<svg
   xmlns:dc="http://purl.org/dc/elements/1.1/"
   xmlns:cc="http://creativecommons.org/ns#"
   xmlns:rdf="http://www.w3.org/1999/02/22-rdf-syntax-ns#"
   xmlns:svg="http://www.w3.org/2000/svg"
   xmlns="http://www.w3.org/2000/svg"
   xmlns:xlink="http://www.w3.org/1999/xlink"
   width="32"
   height="32"
   viewBox="0 0 32 32"
   version="1.1"
   id="svg2420">
  <defs
     id="defs2414">
    <clipPath
       id="Clip7">
      <path
         d="M 0,0 H 108 V 121.821 H 0 Z"
         transform="translate(980.047,594.321)"
         id="path38" />
    </clipPath>
    <linearGradient
       gradientTransform="matrix(0.26428979,0,0,0.21501542,-302.33334,-157.15494)"
       xlink:href="#linearGradient2995"
       id="linearGradient2997"
       x1="1143.9463"
       y1="656.48749"
       x2="1265.0255"
       y2="656.48749"
       gradientUnits="userSpaceOnUse" />
    <linearGradient
       id="linearGradient2995">
      <stop
         style="stop-color:#fd8f18;stop-opacity:1"
         offset="0"
         id="stop2991" />
      <stop
         style="stop-color:#fdaa07;stop-opacity:1"
         offset="1"
         id="stop2993" />
    </linearGradient>
  </defs>
  <metadata
     id="metadata2417">
    <rdf:RDF>
      <cc:Work
         rdf:about="">
        <dc:format>image/svg+xml</dc:format>
        <dc:type
           rdf:resource="http://purl.org/dc/dcmitype/StillImage" />
        <dc:title></dc:title>
      </cc:Work>
    </rdf:RDF>
  </metadata>
  <rect
     transform="rotate(90)"
     y="-32"
     x="5.1953125e-06"
     height="32"
     width="32"
     id="rect2989"
     style="opacity:1;vector-effect:none;fill:url(#linearGradient2997);fill-opacity:1;stroke:none;stroke-width:0;stroke-linecap:round;stroke-linejoin:round;stroke-miterlimit:4;stroke-dasharray:none;stroke-dashoffset:0;stroke-opacity:1" />
  <path
     style="fill:none;stroke:#3d2700;stroke-width:0.76183355;stroke-linecap:round;stroke-linejoin:round;stroke-dasharray:none"
     id=" path3990-3"
     d="m 13.4126,2.3809165 c -0.861626,0 -1.555494,1.10987 -1.555494,2.488545 h 8.285811 c 0,-1.378675 -0.693845,-2.488545 -1.555495,-2.488545 z M 6.3822793,29.619084 H 25.557889 L 24.754563,27.329049 H 7.1856062 Z m 2.3e-5,-24.7496225 H 25.557912 L 24.754586,7.1594962 H 7.1856293 Z M 12.227169,27.343896 c -0.662668,-2.073168 -1.123903,-4.693558 -1.293806,-7.600757 m -0.02626,-4.496225 c 0.143722,-3.099912 0.617282,-5.8973455 1.315132,-8.0867815 m 3.689269,8.2923145 -1.507516,0.972545 -1.596025,-0.819303 -0.08849,-1.791826 1.507516,-0.972545 1.596025,0.81928 z m -1.419029,2.764372 -1.50754,0.972546 -1.596001,-0.81928 -0.08851,-1.791849 1.50754,-0.972547 1.596024,0.819303 z m 1.684511,2.611129 -1.507539,0.972546 -1.596026,-0.819279 -0.08849,-1.79185 1.50754,-0.972546 1.596002,0.81928 z m 3.103541,-0.153266 -1.507539,0.972546 -1.596002,-0.81928 -0.08851,-1.791849 1.507538,-0.972546 1.596026,0.81928 z m 1.41903,-2.764395 -1.507516,0.972546 -1.596026,-0.81928 -0.08849,-1.791827 1.507516,-0.972569 1.596025,0.819304 z m -1.684511,-2.61113 -1.507516,0.972569 -1.596026,-0.819279 -0.08849,-1.791849 1.507539,-0.972547 1.596002,0.819281 z M 7.1742473,27.313732 c -1.9649921,-2.649258 -3.16488,-6.18552 -3.16488,-10.069459 0,-3.890043 1.203653,-7.4313248 3.174141,-10.081949 M 24.81397,27.32952 c 1.972003,-2.650883 3.176663,-6.193531 3.176663,-10.085247 0,-3.885 -1.200513,-7.4221345 -3.166435,-10.0716275 M 9.6953363,27.312553 c -1.403218,-2.649022 -2.260061,-6.184861 -2.260061,-10.068281 0,-3.893718 0.861367,-7.4380408 2.271253,-10.0894662 M 14.745784,27.375472 C 14.613019,26.13643 14.504291,24.700457 14.426055,23.123425 Z M 14.419316,11.503633 c 0.07762,-1.6099526 0.186917,-3.0762062 0.321118,-4.3400375 z m 2.840934,15.815989 c 0.133849,-1.261898 0.242907,-2.725513 0.320411,-4.332214 z M 17.573899,11.358167 C 17.496699,9.8045345 17.389951,8.3878614 17.259732,7.1617809 Z m 2.201995,15.976537 c 0.699145,-2.191181 1.173554,-4.992149 1.317229,-8.096231 m -0.0213,-4.404275 C 20.90569,11.882627 20.439506,9.2227649 19.766823,7.1255383 M 22.28751,27.345072 c 1.413468,-2.652604 2.277311,-6.201497 2.277311,-10.1008 0,-3.875692 -0.853402,-7.4051678 -2.251672,-10.0525401 M 27.50409,21.449376 h -7.134784 z m -15.689422,0 H 4.4960803 Z M 27.50409,13.039144 H 20.1855 Z m -15.85909,0 H 4.4960803" />
</svg>
